<?xml version="1.0" encoding="UTF-8" standalone="no"?>
<!-- Created with Inkscape (http://www.inkscape.org/) -->

<svg
   width="400"
   height="150"
   viewBox="0 0 105.83333 39.687499"
   version="1.1"
   id="svg402"
   inkscape:version="1.2.2 (b0a8486541, 2022-12-01)"
   sodipodi:docname="button-icons.svg"
   xmlns:inkscape="http://www.inkscape.org/namespaces/inkscape"
   xmlns:sodipodi="http://sodipodi.sourceforge.net/DTD/sodipodi-0.dtd"
   xmlns="http://www.w3.org/2000/svg"
   xmlns:svg="http://www.w3.org/2000/svg">
  <sodipodi:namedview
     id="namedview404"
     pagecolor="#ffffff"
     bordercolor="#000000"
     borderopacity="0.25"
     inkscape:showpageshadow="2"
     inkscape:pageopacity="0.0"
     inkscape:pagecheckerboard="0"
     inkscape:deskcolor="#d1d1d1"
     inkscape:document-units="px"
     showgrid="false"
     inkscape:zoom="0.5946522"
     inkscape:cx="-138.73656"
     inkscape:cy="2.5224829"
     inkscape:window-width="1366"
     inkscape:window-height="707"
     inkscape:window-x="0"
     inkscape:window-y="31"
     inkscape:window-maximized="1"
     inkscape:current-layer="layer1" />
  <defs
     id="defs399">
    <filter
       inkscape:collect="always"
       style="color-interpolation-filters:sRGB"
       id="filter7634"
       x="-0.25422699"
       y="-0.23484544"
       width="1.508454"
       height="1.4696904">
      <feGaussianBlur
         inkscape:collect="always"
         stdDeviation="1.175454"
         id="feGaussianBlur7636" />
    </filter>
    <filter
       inkscape:collect="always"
       style="color-interpolation-filters:sRGB"
       id="filter7638"
       x="-0.051137754"
       y="-0.047257836"
       width="1.1022755"
       height="1.0945152">
      <feGaussianBlur
         inkscape:collect="always"
         stdDeviation="0.23203917"
         id="feGaussianBlur7640" />
    </filter>
    <filter
       inkscape:collect="always"
       style="color-interpolation-filters:sRGB"
       id="filter9600"
       x="-0.1985305"
       y="-0.31761"
       width="1.397061"
       height="1.6352559">
      <feGaussianBlur
         inkscape:collect="always"
         stdDeviation="1.0044352"
         id="feGaussianBlur9602" />
    </filter>
    <filter
       inkscape:collect="always"
       style="color-interpolation-filters:sRGB"
       id="filter9604"
       x="-0.040085421"
       y="-0.06412972"
       width="1.0801708"
       height="1.1282951">
      <feGaussianBlur
         inkscape:collect="always"
         stdDeviation="0.19840696"
         id="feGaussianBlur9606" />
    </filter>
    <filter
       inkscape:collect="always"
       style="color-interpolation-filters:sRGB"
       id="filter9617"
       x="-0.19852874"
       y="-0.31761465"
       width="1.3970575"
       height="1.6352652">
      <feGaussianBlur
         inkscape:collect="always"
         stdDeviation="1.0044262"
         id="feGaussianBlur9619" />
    </filter>
    <filter
       inkscape:collect="always"
       style="color-interpolation-filters:sRGB"
       id="filter9690"
       x="-0.040085069"
       y="-0.064130412"
       width="1.0801701"
       height="1.1282967">
      <feGaussianBlur
         inkscape:collect="always"
         stdDeviation="0.19840517"
         id="feGaussianBlur9692" />
    </filter>
    <filter
       inkscape:collect="always"
       style="color-interpolation-filters:sRGB"
       id="filter9883"
       x="-0.24283014"
       y="-0.24317008"
       width="1.4856603"
       height="1.4863402">
      <feGaussianBlur
         inkscape:collect="always"
         stdDeviation="1.2064554"
         id="feGaussianBlur9885" />
    </filter>
    <filter
       inkscape:collect="always"
       style="color-interpolation-filters:sRGB"
       id="filter9887"
       x="-0.04796645"
       y="-0.0480336"
       width="1.0959329"
       height="1.0960672">
      <feGaussianBlur
         inkscape:collect="always"
         stdDeviation="0.23831218"
         id="feGaussianBlur9889" />
    </filter>
  </defs>
  <g
     inkscape:label="Layer 1"
     inkscape:groupmode="layer"
     id="layer1">
    <g
       id="g12320">
      <g
         id="g678"
         style="fill:#f9f9f9;fill-opacity:1;stroke:none"
         transform="translate(37.053478,1.9764896)">
        <path
           id="path346"
           style="fill:#f9f9f9;fill-opacity:1;stroke:none;stroke-width:0.0173318"
           d="M 58.602699,0.54138492 H 54.17602 c -0.188664,0 -0.339572,0.35407813 -0.340546,0.79388578 -0.0076,3.4218272 -0.0075,6.8610972 0,10.3195023 8.82e-4,0.439807 0.151882,0.793886 0.340546,0.793886 h 4.426679 c 0.188664,0 0.340546,-0.354072 0.340546,-0.793886 V 1.3352707 c 0,-0.43981365 -0.151882,-0.79388578 -0.340546,-0.79388578 z"
           sodipodi:nodetypes="sssssssss" />
        <path
           id="path348"
           style="fill:#f9f9f9;fill-opacity:1;stroke:none;stroke-width:0.0175568"
           d="m 65.404307,0.54149737 h -4.542392 c -0.193594,0 -0.348448,0.35407144 -0.349447,0.79387093 -0.0078,3.4217624 -0.0078,6.8609675 0,10.3193077 9.05e-4,0.439798 0.155853,0.793871 0.349447,0.793871 h 4.542392 c 0.193595,0 0.349448,-0.354066 0.349448,-0.793871 V 1.3353683 c 0,-0.43980549 -0.155853,-0.79387093 -0.349448,-0.79387093 z"
           sodipodi:nodetypes="sssssssss" />
      </g>
      <path
         sodipodi:type="star"
         style="fill:#f9f9f9;fill-opacity:1;stroke:none;stroke-width:0.0264583;stroke-dasharray:none;stroke-opacity:1"
         id="path2741"
         inkscape:flatsided="false"
         sodipodi:sides="3"
         sodipodi:cx="104.30108"
         sodipodi:cy="59.36417"
         sodipodi:r1="6.9247155"
         sodipodi:r2="4.2240763"
         sodipodi:arg1="1.0442745"
         sodipodi:arg2="2.0914721"
         inkscape:rounded="0.12"
         inkscape:randomized="0"
         d="m 107.78095,65.351003 c -0.62717,0.364545 -4.95192,-1.961646 -5.58121,-2.322518 -0.62929,-0.360871 -4.821227,-2.918657 -4.823347,-3.644074 -0.0021,-0.725416 4.174797,-3.307665 4.801967,-3.672209 0.62717,-0.364545 4.93824,-2.715978 5.56753,-2.355106 0.62929,0.360871 0.77713,5.269311 0.77925,5.994727 0.002,0.725416 -0.11702,5.634636 -0.74419,5.99918 z"
         inkscape:transform-center-x="1.7224082"
         inkscape:transform-center-y="-0.010121236"
         transform="translate(-35.258152,-50.88309)" />
      <path
         id="path2847"
         style="fill:#17202a;stroke:#d2d2d2;stroke-width:0.0264583;stroke-dasharray:none;stroke-opacity:1;fill-opacity:1"
         inkscape:transform-center-x="-0.84991546"
         d="m 32.892027,4.6558399 c -0.05703,-0.0015 -0.101916,0.0059 -0.132809,0.02377 -0.395418,0.228295 -0.479557,3.318372 -0.479557,3.774963 0,0.456592 0.08414,3.5461511 0.479557,3.7744471 0.39542,0.228295 3.112895,-1.243966 3.508313,-1.472262 0.160232,-0.09251 0.688722,-0.414222 1.259872,-0.7932331 0.06244,1.0072421 0.187035,2.1632341 0.42323,2.2996011 0.39542,0.228296 3.11341,-1.243449 3.50883,-1.471745 0.39542,-0.228296 3.029272,-1.8461101 3.029272,-2.3027021 0,-0.456591 -2.633852,-2.074406 -3.029272,-2.302701 -0.39542,-0.228296 -3.11341,-1.700041 -3.50883,-1.471745 -0.231066,0.133406 -0.355327,1.242763 -0.419096,2.233972 -0.572755,-0.380323 -1.103383,-0.703598 -1.264006,-0.796334 -0.364526,-0.21046 -2.702592,-1.47813 -3.375504,-1.496033 z" />
      <path
         id="path3593"
         style="fill:#17202a;stroke:#d2d2d2;stroke-width:0.0264583;stroke-dasharray:none;stroke-opacity:1;fill-opacity:1"
         inkscape:transform-center-x="0.84991638"
         d="m 14.02456,4.6558397 c -0.672913,0.0179 -3.010977,1.285573 -3.375505,1.496033 -0.160611,0.09273 -0.691313,0.415567 -1.264005,0.795817 -0.06378,-0.991077 -0.18807,-2.100072 -0.419096,-2.233455 -0.39542,-0.228296 -3.11341,1.243449 -3.50883,1.471745 -0.39542,0.228295 -3.029272,1.84611 -3.029272,2.302701 0,0.456592 2.633852,2.0744063 3.029272,2.3027023 0.39542,0.228296 3.11341,1.700041 3.50883,1.471745 0.236195,-0.136367 0.360789,-1.292359 0.42323,-2.2996013 0.571133,0.3790743 1.09964,0.7007233 1.259871,0.7932333 0.39542,0.228296 3.112893,1.700557 3.508313,1.472262 0.39542,-0.228296 0.479558,-3.3178553 0.479558,-3.7744473 0,-0.456592 -0.08414,-3.546668 -0.479558,-3.774963 -0.03089,-0.01784 -0.07578,-0.02529 -0.132808,-0.02377 z" />
      <path
         sodipodi:type="star"
         style="fill:#333333;stroke:#000000;stroke-width:0.0264583;stroke-dasharray:none;stroke-opacity:1"
         id="path3629"
         inkscape:flatsided="false"
         sodipodi:sides="3"
         sodipodi:cx="104.30108"
         sodipodi:cy="59.36417"
         sodipodi:r1="6.9247155"
         sodipodi:r2="4.2240763"
         sodipodi:arg1="1.0442745"
         sodipodi:arg2="2.0914721"
         inkscape:rounded="0.12"
         inkscape:randomized="0"
         d="m 107.78095,65.351003 c -0.62717,0.364545 -4.95192,-1.961646 -5.58121,-2.322518 -0.62929,-0.360871 -4.821227,-2.918657 -4.823347,-3.644074 -0.0021,-0.725416 4.174797,-3.307665 4.801967,-3.672209 0.62717,-0.364545 4.93824,-2.715978 5.56753,-2.355106 0.62929,0.360871 0.77713,5.269311 0.77925,5.994727 0.002,0.725416 -0.11702,5.634636 -0.74419,5.99918 z"
         inkscape:transform-center-x="1.7224082"
         inkscape:transform-center-y="-0.010121236"
         transform="translate(-35.47328,-28.33504)" />
      <path
         sodipodi:type="star"
         style="mix-blend-mode:normal;fill:#1abc9c;fill-opacity:1;stroke:#1abc9c;stroke-width:0.0264583;stroke-dasharray:none;stroke-opacity:1;filter:url(#filter7634)"
         id="path4381"
         inkscape:flatsided="false"
         sodipodi:sides="3"
         sodipodi:cx="104.30108"
         sodipodi:cy="59.36417"
         sodipodi:r1="6.9247155"
         sodipodi:r2="4.2240763"
         sodipodi:arg1="1.0442745"
         sodipodi:arg2="2.0914721"
         inkscape:rounded="0.12"
         inkscape:randomized="0"
         d="m 107.78095,65.351003 c -0.62717,0.364545 -4.95192,-1.961646 -5.58121,-2.322518 -0.62929,-0.360871 -4.821227,-2.918657 -4.823347,-3.644074 -0.0021,-0.725416 4.174797,-3.307665 4.801967,-3.672209 0.62717,-0.364545 4.93824,-2.715978 5.56753,-2.355106 0.62929,0.360871 0.77713,5.269311 0.77925,5.994727 0.002,0.725416 -0.11702,5.634636 -0.74419,5.99918 z"
         inkscape:transform-center-x="1.7224082"
         inkscape:transform-center-y="-0.010121236"
         transform="translate(-35.723949,-28.51623)" />
      <path
         sodipodi:type="star"
         style="mix-blend-mode:normal;fill:#17202a;fill-opacity:1;stroke:#1abc9c;stroke-width:0.0264583;stroke-dasharray:none;stroke-opacity:1;filter:url(#filter7638)"
         id="path7287"
         inkscape:flatsided="false"
         sodipodi:sides="3"
         sodipodi:cx="104.30108"
         sodipodi:cy="59.36417"
         sodipodi:r1="6.9247155"
         sodipodi:r2="4.2240763"
         sodipodi:arg1="1.0442745"
         sodipodi:arg2="2.0914721"
         inkscape:rounded="0.12"
         inkscape:randomized="0"
         d="m 107.78095,65.351003 c -0.62717,0.364545 -4.95192,-1.961646 -5.58121,-2.322518 -0.62929,-0.360871 -4.821227,-2.918657 -4.823347,-3.644074 -0.0021,-0.725416 4.174797,-3.307665 4.801967,-3.672209 0.62717,-0.364545 4.93824,-2.715978 5.56753,-2.355106 0.62929,0.360871 0.77713,5.269311 0.77925,5.994727 0.002,0.725416 -0.11702,5.634636 -0.74419,5.99918 z"
         inkscape:transform-center-x="1.7442721"
         inkscape:transform-center-y="-0.0097951587"
         transform="matrix(1.0126906,0,0,0.96777214,-36.850529,-26.422258)" />
      <path
         id="path3631"
         style="fill:#333333;stroke:#d2d2d2;stroke-width:0.0264583;stroke-dasharray:none;stroke-opacity:1"
         inkscape:transform-center-x="-0.84991546"
         d="m 32.574165,27.149662 c -0.04172,0.0017 -0.07554,0.0095 -0.100253,0.02377 -0.395419,0.228295 -0.479557,3.317855 -0.479557,3.774446 0,0.456592 0.08414,3.546151 0.479557,3.774447 0.39542,0.228296 3.112894,-1.243449 3.508313,-1.471745 0.160243,-0.09252 0.688691,-0.41464 1.259872,-0.79375 0.06244,1.007243 0.187035,2.163751 0.42323,2.300118 0.39542,0.228296 3.11341,-1.243966 3.50883,-1.472262 0.39542,-0.228295 3.029272,-1.84611 3.029272,-2.302701 0,-0.456592 -2.633852,-2.07389 -3.029272,-2.302185 -0.39542,-0.228296 -3.11341,-1.700558 -3.50883,-1.472262 -0.231066,0.133406 -0.355327,1.242764 -0.419096,2.233972 -0.572738,-0.380285 -1.103383,-0.703598 -1.264006,-0.796334 -0.370706,-0.214027 -2.782212,-1.52106 -3.40806,-1.495516 z" />
      <path
         id="path7643"
         style="fill:#333333;stroke:#d2d2d2;stroke-width:0.0264583;stroke-dasharray:none;stroke-opacity:1"
         inkscape:transform-center-x="-0.84991546"
         d="m 32.574165,27.149662 c -0.04172,0.0017 -0.07554,0.0095 -0.100253,0.02377 -0.395419,0.228295 -0.479557,3.317855 -0.479557,3.774446 0,0.456592 0.08414,3.546151 0.479557,3.774447 0.39542,0.228296 3.112894,-1.243449 3.508313,-1.471745 0.160243,-0.09252 0.688691,-0.41464 1.259872,-0.79375 0.06244,1.007243 0.187035,2.163751 0.42323,2.300118 0.39542,0.228296 3.11341,-1.243966 3.50883,-1.472262 0.39542,-0.228295 3.029272,-1.84611 3.029272,-2.302701 0,-0.456592 -2.633852,-2.07389 -3.029272,-2.302185 -0.39542,-0.228296 -3.11341,-1.700558 -3.50883,-1.472262 -0.231066,0.133406 -0.355327,1.242764 -0.419096,2.233972 -0.572738,-0.380285 -1.103383,-0.703598 -1.264006,-0.796334 -0.370706,-0.214027 -2.782212,-1.52106 -3.40806,-1.495516 z" />
      <path
         id="path8371"
         style="fill:#1abc9c;fill-opacity:1;stroke:#d2d2d2;stroke-width:0.0264583;stroke-dasharray:none;stroke-opacity:1;filter:url(#filter9600)"
         inkscape:transform-center-x="-0.84991546"
         d="m 92.611098,55.531705 c 0.04172,0.0017 0.07554,0.0095 0.100253,0.02377 0.395419,0.228295 0.479557,3.317855 0.479557,3.774446 0,0.456592 -0.08414,3.546151 -0.479557,3.774447 -0.39542,0.228296 -3.112894,-1.243449 -3.508313,-1.471745 -0.160243,-0.09252 -0.688691,-0.41464 -1.259872,-0.79375 -0.06244,1.007243 -0.187035,2.163751 -0.42323,2.300118 -0.39542,0.228296 -3.11341,-1.243966 -3.50883,-1.472262 -0.39542,-0.228295 -3.029272,-1.84611 -3.029272,-2.302701 0,-0.456592 2.633852,-2.07389 3.029272,-2.302185 0.39542,-0.228296 3.11341,-1.700558 3.50883,-1.472262 0.231066,0.133406 0.355327,1.242764 0.419096,2.233972 0.572738,-0.380285 1.103383,-0.703598 1.264006,-0.796334 0.370706,-0.214027 2.782212,-1.52106 3.40806,-1.495516 z"
         transform="matrix(-1,0,0,1,125.02382,-28.508913)" />
      <path
         id="path9099"
         style="fill:#17202a;fill-opacity:1;stroke:#d2d2d2;stroke-width:0.0264583;stroke-dasharray:none;stroke-opacity:1;filter:url(#filter9604)"
         inkscape:transform-center-x="-0.84991546"
         d="m 32.760175,27.119106 c -0.04172,0.0017 -0.07554,0.0095 -0.100253,0.02377 -0.395419,0.228295 -0.479557,3.317855 -0.479557,3.774446 0,0.456592 0.08414,3.546151 0.479557,3.774447 0.39542,0.228296 3.112894,-1.243449 3.508313,-1.471745 0.160243,-0.09252 0.688691,-0.41464 1.259872,-0.79375 0.06244,1.007243 0.187035,2.163751 0.42323,2.300118 0.39542,0.228296 3.11341,-1.243966 3.50883,-1.472262 0.39542,-0.228295 3.029272,-1.84611 3.029272,-2.302701 0,-0.456592 -2.633852,-2.07389 -3.029272,-2.302185 -0.39542,-0.228296 -3.11341,-1.700558 -3.50883,-1.472262 -0.231066,0.133406 -0.355327,1.242764 -0.419096,2.233972 -0.572738,-0.380285 -1.103383,-0.703598 -1.264006,-0.796334 -0.370706,-0.214027 -2.782212,-1.52106 -3.40806,-1.495516 z" />
      <path
         id="path3651"
         style="fill:#333333;stroke:#d2d2d2;stroke-width:0.0264583;stroke-dasharray:none;stroke-opacity:1"
         inkscape:transform-center-x="0.84991638"
         d="m 14.02056,27.0227 c -0.672913,0.0179 -3.010977,1.285056 -3.375505,1.495516 -0.160622,0.09274 -0.691267,0.416049 -1.264005,0.796334 -0.06377,-0.991208 -0.18803,-2.100566 -0.419096,-2.233972 -0.39542,-0.228296 -3.11341,1.243966 -3.50883,1.472262 -0.39542,0.228295 -3.029272,1.845593 -3.029272,2.302185 0,0.456591 2.633852,2.074406 3.029272,2.302701 0.39542,0.228296 3.11341,1.700558 3.50883,1.472262 0.236195,-0.136367 0.360789,-1.292875 0.42323,-2.300118 0.57118,0.37911 1.099628,0.701234 1.259871,0.79375 0.39542,0.228296 3.112893,1.700041 3.508313,1.471745 0.39542,-0.228296 0.479558,-3.317855 0.479558,-3.774447 0,-0.456591 -0.08414,-3.546151 -0.479558,-3.774446 -0.03089,-0.01784 -0.07578,-0.02529 -0.132808,-0.02377 z" />
      <path
         id="path9609"
         style="fill:#1abc9c;fill-opacity:1;stroke:#d2d2d2;stroke-width:0.0264583;stroke-dasharray:none;stroke-opacity:1;filter:url(#filter9617)"
         inkscape:transform-center-x="0.84991638"
         d="m 14.02056,27.0227 c -0.672913,0.0179 -3.010977,1.285056 -3.375505,1.495516 -0.160622,0.09274 -0.691267,0.416049 -1.264005,0.796334 -0.06377,-0.991208 -0.18803,-2.100566 -0.419096,-2.233972 -0.39542,-0.228296 -3.11341,1.243966 -3.50883,1.472262 -0.39542,0.228295 -3.029272,1.845593 -3.029272,2.302185 0,0.456591 2.633852,2.074406 3.029272,2.302701 0.39542,0.228296 3.11341,1.700558 3.50883,1.472262 0.236195,-0.136367 0.360789,-1.292875 0.42323,-2.300118 0.57118,0.37911 1.099628,0.701234 1.259871,0.79375 0.39542,0.228296 3.112893,1.700041 3.508313,1.471745 0.39542,-0.228296 0.479558,-3.317855 0.479558,-3.774447 0,-0.456591 -0.08414,-3.546151 -0.479558,-3.774446 -0.03089,-0.01784 -0.07578,-0.02529 -0.132808,-0.02377 z" />
      <path
         id="path9615"
         style="fill:#17202a;fill-opacity:1;stroke:#d2d2d2;stroke-width:0.0264583;stroke-dasharray:none;stroke-opacity:1;filter:url(#filter9690)"
         inkscape:transform-center-x="0.84991638"
         d="m 14.02056,27.0227 c -0.672913,0.0179 -3.010977,1.285056 -3.375505,1.495516 -0.160622,0.09274 -0.691267,0.416049 -1.264005,0.796334 -0.06377,-0.991208 -0.18803,-2.100566 -0.419096,-2.233972 -0.39542,-0.228296 -3.11341,1.243966 -3.50883,1.472262 -0.39542,0.228295 -3.029272,1.845593 -3.029272,2.302185 0,0.456591 2.633852,2.074406 3.029272,2.302701 0.39542,0.228296 3.11341,1.700558 3.50883,1.472262 0.236195,-0.136367 0.360789,-1.292875 0.42323,-2.300118 0.57118,0.37911 1.099628,0.701234 1.259871,0.79375 0.39542,0.228296 3.112893,1.700041 3.508313,1.471745 0.39542,-0.228296 0.479558,-3.317855 0.479558,-3.774447 0,-0.456591 -0.08414,-3.546151 -0.479558,-3.774446 -0.03089,-0.01784 -0.07578,-0.02529 -0.132808,-0.02377 z" />
      <g
         id="g8348"
         style="fill:#333333;fill-opacity:1;stroke:none"
         transform="translate(37.053478,24.343347)">
        <path
           id="path8344"
           style="fill:#333333;fill-opacity:1;stroke:none;stroke-width:0.0173318"
           d="M 58.602699,0.54138492 H 54.17602 c -0.188664,0 -0.339572,0.35407813 -0.340546,0.79388578 -0.0076,3.4218272 -0.0075,6.8610972 0,10.3195023 8.82e-4,0.439807 0.151882,0.793886 0.340546,0.793886 h 4.426679 c 0.188664,0 0.340546,-0.354072 0.340546,-0.793886 V 1.3352707 c 0,-0.43981365 -0.151882,-0.79388578 -0.340546,-0.79388578 z"
           sodipodi:nodetypes="sssssssss" />
        <path
           id="path8346"
           style="fill:#333333;fill-opacity:1;stroke:none;stroke-width:0.0175568"
           d="m 65.404307,0.54149737 h -4.542392 c -0.193594,0 -0.348448,0.35407144 -0.349447,0.79387093 -0.0078,3.4217624 -0.0078,6.8609675 0,10.3193077 9.05e-4,0.439798 0.155853,0.793871 0.349447,0.793871 h 4.542392 c 0.193595,0 0.349448,-0.354066 0.349448,-0.793871 V 1.3353683 c 0,-0.43980549 -0.155853,-0.79387093 -0.349448,-0.79387093 z"
           sodipodi:nodetypes="sssssssss" />
      </g>
      <g
         id="g8354"
         style="fill:#1abc9c;fill-opacity:1;stroke:none;filter:url(#filter9883)"
         transform="translate(37.053478,24.343347)">
        <path
           id="path8350"
           style="fill:#1abc9c;fill-opacity:1;stroke:none;stroke-width:0.0173318"
           d="M 58.602699,0.54138492 H 54.17602 c -0.188664,0 -0.339572,0.35407813 -0.340546,0.79388578 -0.0076,3.4218272 -0.0075,6.8610972 0,10.3195023 8.82e-4,0.439807 0.151882,0.793886 0.340546,0.793886 h 4.426679 c 0.188664,0 0.340546,-0.354072 0.340546,-0.793886 V 1.3352707 c 0,-0.43981365 -0.151882,-0.79388578 -0.340546,-0.79388578 z"
           sodipodi:nodetypes="sssssssss" />
        <path
           id="path8352"
           style="fill:#1abc9c;fill-opacity:1;stroke:none;stroke-width:0.0175568"
           d="m 65.404307,0.54149737 h -4.542392 c -0.193594,0 -0.348448,0.35407144 -0.349447,0.79387093 -0.0078,3.4217624 -0.0078,6.8609675 0,10.3193077 9.05e-4,0.439798 0.155853,0.793871 0.349447,0.793871 h 4.542392 c 0.193595,0 0.349448,-0.354066 0.349448,-0.793871 V 1.3353683 c 0,-0.43980549 -0.155853,-0.79387093 -0.349448,-0.79387093 z"
           sodipodi:nodetypes="sssssssss" />
      </g>
      <g
         id="g9812"
         style="fill:#17202a;fill-opacity:1;stroke:none;filter:url(#filter9887)"
         transform="translate(37.053478,24.343347)">
        <path
           id="path9808"
           style="fill:#17202a;fill-opacity:1;stroke:none;stroke-width:0.0173318"
           d="M 58.602699,0.54138492 H 54.17602 c -0.188664,0 -0.339572,0.35407813 -0.340546,0.79388578 -0.0076,3.4218272 -0.0075,6.8610972 0,10.3195023 8.82e-4,0.439807 0.151882,0.793886 0.340546,0.793886 h 4.426679 c 0.188664,0 0.340546,-0.354072 0.340546,-0.793886 V 1.3352707 c 0,-0.43981365 -0.151882,-0.79388578 -0.340546,-0.79388578 z"
           sodipodi:nodetypes="sssssssss" />
        <path
           id="path9810"
           style="fill:#17202a;fill-opacity:1;stroke:none;stroke-width:0.0175568"
           d="m 65.404307,0.54149737 h -4.542392 c -0.193594,0 -0.348448,0.35407144 -0.349447,0.79387093 -0.0078,3.4217624 -0.0078,6.8609675 0,10.3193077 9.05e-4,0.439798 0.155853,0.793871 0.349447,0.793871 h 4.542392 c 0.193595,0 0.349448,-0.354066 0.349448,-0.793871 V 1.3353683 c 0,-0.43980549 -0.155853,-0.79387093 -0.349448,-0.79387093 z"
           sodipodi:nodetypes="sssssssss" />
      </g>
    </g>
  </g>
</svg>
